<svg width="12" height="12" viewBox="0 0 12 12" fill="none" xmlns="http://www.w3.org/2000/svg">
<g>
<path d="M5.9996 0C9.31331 0 11.9996 2.68629 11.9996 6C11.9996 9.31371 9.31331 12 5.9996 12C2.68608 11.9998 -0.000396729 9.31358 -0.000396729 6C-0.000396729 2.68642 2.68608 0.0002144 5.9996 0ZM5.9996 1C3.23836 1.00021 0.999603 3.23871 0.999603 6C0.999603 8.76129 3.23836 10.9998 5.9996 11C8.76103 11 10.9996 8.76142 10.9996 6C10.9996 3.23858 8.76103 1 5.9996 1ZM5.9996 6H8.9996V7H4.9996V2H5.9996V6Z" fill="currentColor"/>
</g>
</svg>
