<svg width="16" height="16" viewBox="0 0 16 16" fill="none" xmlns="http://www.w3.org/2000/svg">
    <path fill-rule="evenodd" clip-rule="evenodd" d="M2 0H9.70711L15 5.29289V16H2V0ZM3 1V15H14V6H9V1H3ZM10 1.70711L13.2929 5H10V1.70711ZM7.7487 8.30093C7.59005 8.47942 7.5 8.73153 7.5 9H6.5C6.5 8.51847 6.65995 8.02058 7.0013 7.63657C7.35082 7.24335 7.86432 7 8.5 7C9.10332 7 9.60732 7.18547 9.96536 7.51818C10.3222 7.84982 10.5 8.29738 10.5 8.75C10.5 9.57327 10.002 10.0244 9.65387 10.3398C9.63117 10.3604 9.60911 10.3804 9.58786 10.3998C9.2339 10.7243 9 10.9723 9 11.5H8C8 10.5277 8.5161 10.0257 8.91214 9.66267C9.315 9.29339 9.5 9.12306 9.5 8.75C9.5 8.56116 9.42776 8.38372 9.28464 8.25072C9.14268 8.1188 8.89668 8 8.5 8C8.13568 8 7.89918 8.13165 7.7487 8.30093ZM8.5 14C8.91421 14 9.25 13.6642 9.25 13.25C9.25 12.8358 8.91421 12.5 8.5 12.5C8.08579 12.5 7.75 12.8358 7.75 13.25C7.75 13.6642 8.08579 14 8.5 14Z" fill="#FF794C"/>
</svg>
