<svg width="16" height="16" viewBox="0 0 16 16" fill="none" xmlns="http://www.w3.org/2000/svg">
    <g>
        <path fill-rule="evenodd" clip-rule="evenodd" d="M13.8788 16L12.8788 15H11H0V16H13.8788ZM8.35418 14H1V13H2V5H1V3L7.5 0L14 3V5H13V7.53513C12.6905 7.35609 12.3548 7.21733 12 7.12602V5H11V7C10.6547 7 10.3196 7.04375 10 7.12602V5H9V7.53513C8.6236 7.75287 8.28596 8.03018 8 8.35418V5H7V11V13H7.53513C7.75287 13.3764 8.03018 13.714 8.35418 14ZM13 4V3.64L7.5 1.1L2 3.64V4H13ZM4 5H3V13H4V5ZM6 5H5V13H6V5ZM16.0001 15.2929L15.293 16L12.7383 13.4454C12.2479 13.7946 11.6479 14 11 14C9.34315 14 8 12.6569 8 11C8 9.34315 9.34315 8 11 8C12.6569 8 14 9.34315 14 11C14 11.6479 13.7946 12.2479 13.4454 12.7383L16.0001 15.2929ZM13 11C13 12.1046 12.1046 13 11 13C9.89543 13 9 12.1046 9 11C9 9.89543 9.89543 9 11 9C12.1046 9 13 9.89543 13 11Z" fill="#4072E5"/>
    </g>
</svg>
