<svg width="16" height="16" viewBox="0 0 16 16" fill="none" xmlns="http://www.w3.org/2000/svg">
<path fill-rule="evenodd" clip-rule="evenodd" d="M0 5.5V1H1V5H6V1H7V5.5V6H6.5H0.5H0V5.5ZM9 5.5V1H10V5H15V1H16V5.5V6H15.5H9.5H9V5.5ZM0 8H0.5H3.5H3.70711L3.85355 8.14645L6.85355 11.1464L7 11.2929V11.5V15H6V12H3.5H3V11.5V9H1V15H0V8.5V8ZM4 9.70711V11H5.29289L4 9.70711ZM9 8H9.5H12.5H12.7071L12.8536 8.14645L15.8536 11.1464L16 11.2929V11.5V15H15V12H12.5H12V11.5V9H10V15H9V8.5V8ZM13 9.70711V11H14.2929L13 9.70711Z" fill="currentColor"/>
</svg>
