<svg width="16" height="16" viewBox="0 0 16 16" fill="none" xmlns="http://www.w3.org/2000/svg">
<path fill-rule="evenodd" clip-rule="evenodd" d="M12.75 2H3.25C3.11193 2 3 2.11193 3 2.25V8H13V2.25C13 2.11193 12.8881 2 12.75 2ZM3 14.75V9H13V14.75C13 14.8881 12.8881 15 12.75 15H3.25C3.11193 15 3 14.8881 3 14.75ZM3.25 1C2.55964 1 2 1.55964 2 2.25V14.75C2 15.4404 2.55964 16 3.25 16H12.75C13.4404 16 14 15.4404 14 14.75V2.25C14 1.55964 13.4404 1 12.75 1H3.25ZM4 4H6V3H4V4ZM8 6V5H4V6H8ZM4 11H6V10H4V11ZM8 13V12H4V13H8Z" fill="currentColor"/>
</svg>
