<svg width="16" height="16" viewBox="0 0 16 16" fill="none" xmlns="http://www.w3.org/2000/svg">
<path fill-rule="evenodd" clip-rule="evenodd" d="M8 3H2.25C2.11193 3 2 3.11193 2 3.25V12.75C2 12.8881 2.11193 13 2.25 13H8V3ZM9 3V13H14.75C14.8881 13 15 12.8881 15 12.75V3.25C15 3.11193 14.8881 3 14.75 3H9ZM2.25 2C1.55964 2 1 2.55964 1 3.25V12.75C1 13.4404 1.55964 14 2.25 14H14.75C15.4404 14 16 13.4404 16 12.75V3.25C16 2.55964 15.4404 2 14.75 2H2.25ZM5 5H3V4H5V5ZM12 5H10V4H12V5ZM7 6V7H3V6H7ZM14 6V7H10V6H14Z" fill="currentColor"/>
</svg>
