<svg width="16" height="16" viewBox="0 0 16 16" fill="none" xmlns="http://www.w3.org/2000/svg">
    <path fill-rule="evenodd" clip-rule="evenodd" d="M1.5 2H1V2.5V13.5V14H1.5H15.5H16V13.5V5.5V5.29289L15.8536 5.14645L12.8536 2.14645L12.7071 2H12.5H1.5ZM2 13V3H8V13H2ZM9 13H15V5.70711L12.2929 3H9V13ZM5.9375 11H4.89062V6.68359H4.83984C4.70703 6.77734 4.57292 6.8724 4.4375 6.96875L4.03125 7.25781C3.89844 7.35156 3.76432 7.44661 3.62891 7.54297V6.57422L4.26172 6.12109C4.47266 5.97005 4.68229 5.81901 4.89062 5.66797H5.9375V11ZM10.1719 7.25781H11.1719V7.23438V7.19922C11.1719 7.0612 11.2031 6.93229 11.2656 6.8125C11.3307 6.6901 11.4232 6.59245 11.543 6.51953C11.6628 6.44661 11.806 6.41016 11.9727 6.41016C12.1263 6.41016 12.263 6.44271 12.3828 6.50781C12.5026 6.57031 12.5964 6.65755 12.6641 6.76953C12.7344 6.88151 12.7695 7.01042 12.7695 7.15625C12.7695 7.30208 12.7396 7.4388 12.6797 7.56641C12.6198 7.69401 12.5443 7.8138 12.4531 7.92578C12.362 8.03516 12.2682 8.14062 12.1719 8.24219L10.2227 10.3438V11H13.9062V10.1406H11.668V10.0898L12.8789 8.75391C13.0352 8.58203 13.1836 8.41406 13.3242 8.25C13.4674 8.08333 13.5846 7.90495 13.6758 7.71484C13.7695 7.52214 13.8164 7.30339 13.8164 7.05859C13.8164 6.77474 13.7409 6.52083 13.5898 6.29688C13.4414 6.07031 13.2305 5.89193 12.957 5.76172C12.6836 5.63151 12.3633 5.56641 11.9961 5.56641C11.6862 5.56641 11.4167 5.61328 11.1875 5.70703C10.9609 5.80078 10.7721 5.92578 10.6211 6.08203C10.4701 6.23828 10.3568 6.41406 10.2812 6.60938C10.2083 6.80208 10.1719 7.0013 10.1719 7.20703V7.25781Z" fill="currentColor"/>
</svg>
