<svg width="17" height="16" viewBox="0 0 16 16" fill="none" xmlns="http://www.w3.org/2000/svg">
<path fill-rule="evenodd" clip-rule="evenodd" d="M2 2H1.5V2.5V13.5V14H2H16H16.5V13.5V5.5V5.29289L16.3536 5.14645L13.3536 2.14645L13.2071 2H13H2ZM2.5 13V3H8.5V13H2.5ZM9.5 13H15.5V5.70711L12.7929 3H9.5V13ZM4.67188 7.25781H3.67188V7.20703C3.67188 7.0013 3.70833 6.80208 3.78125 6.60938C3.85677 6.41406 3.97005 6.23828 4.12109 6.08203C4.27214 5.92578 4.46094 5.80078 4.6875 5.70703C4.91667 5.61328 5.1862 5.56641 5.49609 5.56641C5.86328 5.56641 6.18359 5.63151 6.45703 5.76172C6.73047 5.89193 6.94141 6.07031 7.08984 6.29688C7.24089 6.52083 7.31641 6.77474 7.31641 7.05859C7.31641 7.30339 7.26953 7.52214 7.17578 7.71484C7.08464 7.90495 6.96745 8.08333 6.82422 8.25C6.68359 8.41406 6.53516 8.58203 6.37891 8.75391L5.16797 10.0898V10.1406H7.40625V11H3.72266V10.3438L5.67188 8.24219C5.76823 8.14062 5.86198 8.03516 5.95312 7.92578C6.04427 7.8138 6.11979 7.69401 6.17969 7.56641C6.23958 7.4388 6.26953 7.30208 6.26953 7.15625C6.26953 7.01042 6.23438 6.88151 6.16406 6.76953C6.09635 6.65755 6.0026 6.57031 5.88281 6.50781C5.76302 6.44271 5.6263 6.41016 5.47266 6.41016C5.30599 6.41016 5.16276 6.44661 5.04297 6.51953C4.92318 6.59245 4.83073 6.6901 4.76562 6.8125C4.70312 6.93229 4.67188 7.0612 4.67188 7.19922V7.23438V7.25781ZM11.8516 7.84766V8.66016H12.4414C12.6341 8.66016 12.7995 8.69531 12.9375 8.76562C13.0781 8.83333 13.1875 8.92708 13.2656 9.04688C13.3438 9.16667 13.3828 9.30469 13.3828 9.46094C13.3854 9.61979 13.3464 9.76172 13.2656 9.88672C13.1875 10.0091 13.0755 10.1055 12.9297 10.1758C12.7839 10.2435 12.6133 10.2773 12.418 10.2773C12.2409 10.2747 12.082 10.2448 11.9414 10.1875C11.8034 10.1276 11.6927 10.0482 11.6094 9.94922C11.526 9.84766 11.4792 9.73307 11.4688 9.60547H10.5C10.5104 9.8763 10.5898 10.1263 10.7383 10.3555C10.8893 10.582 11.1055 10.7643 11.3867 10.9023C11.6706 11.0378 12.013 11.1055 12.4141 11.1055C12.6901 11.1055 12.9492 11.0703 13.1914 11C13.4362 10.9271 13.6523 10.8229 13.8398 10.6875C14.0273 10.5495 14.1732 10.3815 14.2773 10.1836C14.3841 9.98568 14.4362 9.76042 14.4336 9.50781C14.431 9.22396 14.3672 8.99219 14.2422 8.8125C14.1172 8.63021 13.9661 8.49219 13.7891 8.39844C13.6146 8.30469 13.4466 8.25 13.2852 8.23438V8.17969C13.4154 8.15885 13.5573 8.10026 13.7109 8.00391C13.8672 7.90495 14 7.76823 14.1094 7.59375C14.2214 7.41927 14.2747 7.20703 14.2695 6.95703C14.2669 6.6862 14.1901 6.44661 14.0391 6.23828C13.8906 6.02734 13.681 5.86198 13.4102 5.74219C13.1393 5.6224 12.8177 5.5638 12.4453 5.56641C12.1536 5.56901 11.8945 5.60807 11.668 5.68359C11.444 5.75911 11.2539 5.86458 11.0977 6C10.9414 6.13281 10.8216 6.28906 10.7383 6.46875C10.6549 6.64844 10.6094 6.84245 10.6016 7.05078H11.582C11.5872 6.96484 11.6094 6.88151 11.6484 6.80078C11.6901 6.72005 11.7474 6.64844 11.8203 6.58594C11.8932 6.52344 11.9792 6.47396 12.0781 6.4375C12.1797 6.40104 12.2917 6.38281 12.4141 6.38281C12.6536 6.38281 12.8503 6.44922 13.0039 6.58203C13.1602 6.71484 13.2383 6.88932 13.2383 7.10547C13.2409 7.24609 13.207 7.3724 13.1367 7.48438C13.0664 7.59635 12.9688 7.6849 12.8438 7.75C12.7188 7.8151 12.5755 7.84766 12.4141 7.84766H11.8516Z" fill="currentColor"/>
</svg>
