<svg width="20" height="20" viewBox="0 0 20 20" fill="none" xmlns="http://www.w3.org/2000/svg">
<path fill-rule="evenodd" clip-rule="evenodd" d="M13 4.75C13.4142 4.75 13.75 4.41421 13.75 4C13.75 3.58579 13.4142 3.25 13 3.25C12.5858 3.25 12.25 3.58579 12.25 4C12.25 4.41421 12.5858 4.75 13 4.75ZM14.9004 4.625C14.638 5.42348 13.8863 6 13 6C12.1137 6 11.362 5.42348 11.0996 4.625H2V3.375H11.0996C11.362 2.57652 12.1137 2 13 2C13.8863 2 14.638 2.57652 14.9004 3.375L18 3.375V4.625L14.9004 4.625ZM7 10.75C7.41421 10.75 7.75 10.4142 7.75 10C7.75 9.58579 7.41421 9.25 7 9.25C6.58579 9.25 6.25 9.58579 6.25 10C6.25 10.4142 6.58579 10.75 7 10.75ZM7 12C7.8863 12 8.63796 11.4235 8.90041 10.625L18 10.625V9.375L8.90041 9.375C8.63796 8.57652 7.8863 8 7 8C6.1137 8 5.36204 8.57652 5.09959 9.375H2V10.625H5.09959C5.36204 11.4235 6.1137 12 7 12ZM13.75 16C13.75 16.4142 13.4142 16.75 13 16.75C12.5858 16.75 12.25 16.4142 12.25 16C12.25 15.5858 12.5858 15.25 13 15.25C13.4142 15.25 13.75 15.5858 13.75 16ZM14.9004 16.625C14.638 17.4235 13.8863 18 13 18C12.1137 18 11.362 17.4235 11.0996 16.625H2V15.375H11.0996C11.362 14.5765 12.1137 14 13 14C13.8863 14 14.638 14.5765 14.9004 15.375H18V16.625H14.9004Z" fill="currentColor"/>
</svg>
