<svg width="20" height="20" viewBox="0 0 20 20" fill="none" xmlns="http://www.w3.org/2000/svg">
<path d="M15 20H13.6455L12.8643 18.125H9.63574L8.85449 20H7.5L10.625 12.5H11.875L15 20ZM20 20H18.75V19.1533C18.3529 19.6752 17.8002 20 17.1875 20C15.9794 20 15 18.7408 15 17.1875C15 15.6342 15.9794 14.375 17.1875 14.375C17.8 14.375 18.3529 14.6992 18.75 15.2207V14.375H20V20ZM17.5 15.3125C16.8097 15.3125 16.25 16.152 16.25 17.1875C16.25 18.223 16.8097 19.0625 17.5 19.0625C18.1904 19.0625 18.75 18.223 18.75 17.1875C18.75 16.152 18.1904 15.3125 17.5 15.3125ZM15.75 1C16.4404 1 17 1.55964 17 2.25V13.3828C16.5355 13.4125 16.117 13.5503 15.75 13.7705V2.25H4.25V17.75H7.35449L6.83301 19H4.25C3.55964 19 3 18.4404 3 17.75V2.25C3 1.55964 3.55964 1 4.25 1H15.75ZM10.0264 17.1875H12.4736L11.25 14.25L10.0264 17.1875ZM11 11.25H6V10H11V11.25ZM14 8.25H6V7H14V8.25ZM14 5.25H6V4H14V5.25Z" fill="currentColor"/>
</svg>
