<svg width="20" height="20" viewBox="0 0 20 20" fill="none" xmlns="http://www.w3.org/2000/svg">
<path d="M13.6162 2.50049C14.1044 2.0124 14.8956 2.0124 15.3838 2.50049L18.5 5.6167C18.9879 6.10486 18.988 6.8962 18.5 7.38428L8.38379 17.5005C7.8957 17.9883 7.1043 17.9883 6.61621 17.5005L6.05762 16.9419L5 18.0005H1L4.05762 14.9419L3.5 14.3843C3.01198 13.8962 3.01212 13.1049 3.5 12.6167L13.6162 2.50049ZM4.38379 13.5005L7.5 16.6167L12.1152 12.0005L8.99902 8.88428L4.38379 13.5005ZM9.88379 7.99951L13 11.1157L17.6162 6.50049L14.5 3.38428L9.88379 7.99951ZM4 0.884277L3.00879 1.87549H4.9375C6.62887 1.87549 8 3.24662 8 4.93799C7.99975 6.62915 6.62872 8.00049 4.9375 8.00049H4V6.75049H4.9375C5.93836 6.75049 6.74975 5.93879 6.75 4.93799C6.75 3.93697 5.93852 3.12549 4.9375 3.12549H3.00879L4 4.11572L3.11621 5.00049L0.616211 2.50049L3.11621 0.000488281L4 0.884277Z" fill="currentColor"/>
</svg>
