<svg width="20" height="20" viewBox="0 0 20 20" fill="none" xmlns="http://www.w3.org/2000/svg">
<path d="M16.75 13H15V16.75H16.75V13ZM5 16.75V13H3.25V16.75H5ZM18 16.75C18 17.4404 17.4404 18 16.75 18H13.75V11.75H16.75L16.75 9C16.75 5.27208 13.7279 2.25 10 2.25C6.27208 2.25 3.25 5.27307 3.25 9.00099C3.25 10.0826 3.25 11.0685 3.25 11.75H6.25V18H3.25C2.55964 18 2 17.4404 2 16.75L2 9C2.00001 4.58172 5.58172 1 10 1C14.4183 1 18 4.58242 18 9.0007C18 13.0545 18 16.75 18 16.75Z" fill="currentColor"/>
</svg>
